<svg id="Capa_1" data-name="Capa 1" xmlns="http://www.w3.org/2000/svg" viewBox="0 0 45.92 45.92"><defs><style>.cls-1{fill:#5a35b6;}</style></defs><title>Iconos servicios</title><path class="cls-1" d="M16.9,27.76,18.16,29a1.14,1.14,0,0,0,1.59,0l.8-.8.39.16v1.13a1.12,1.12,0,0,0,1.12,1.12h1.8A1.12,1.12,0,0,0,25,29.52V28.39l.39-.16.8.8a1.14,1.14,0,0,0,1.59,0L29,27.76a1.14,1.14,0,0,0,0-1.59l-.8-.8c.06-.13.11-.26.16-.39h1.13a1.12,1.12,0,0,0,1.12-1.12v-1.8a1.12,1.12,0,0,0-1.12-1.12H28.39c-.05-.13-.1-.26-.16-.39l.8-.8a1.13,1.13,0,0,0,0-1.58L27.76,16.9a1.12,1.12,0,0,0-1.59,0l-.8.79L25,17.53V16.41a1.13,1.13,0,0,0-1.12-1.13h-1.8a1.13,1.13,0,0,0-1.12,1.13v1.12l-.39.16-.8-.79a1.12,1.12,0,0,0-1.59,0L16.9,18.17a1.11,1.11,0,0,0,0,1.58l.79.8c-.06.13-.11.26-.16.39H16.41a1.13,1.13,0,0,0-1.13,1.12v1.8A1.13,1.13,0,0,0,16.41,25h1.12c0,.13.1.26.16.39l-.79.8A1.12,1.12,0,0,0,16.9,27.76Zm.71-4H16.52V22.17h1.09a1.11,1.11,0,0,0,1.05-.74,3.12,3.12,0,0,1,.18-.42,1.15,1.15,0,0,0-.22-1.28L17.85,19,19,17.85l.77.77a1.15,1.15,0,0,0,1.28.22,3.12,3.12,0,0,1,.42-.18,1.12,1.12,0,0,0,.74-1.05V16.52h1.58v1.09a1.12,1.12,0,0,0,.74,1.05,3.25,3.25,0,0,1,.43.18,1.13,1.13,0,0,0,1.27-.22l.77-.77L28.08,19l-.78.77A1.15,1.15,0,0,0,27.08,21a3.12,3.12,0,0,1,.18.42,1.13,1.13,0,0,0,1.06.74h1.09v1.58H28.32a1.13,1.13,0,0,0-1.06.74,3.25,3.25,0,0,1-.18.43,1.13,1.13,0,0,0,.22,1.27l.78.77L27,28.07l-.77-.77a1.13,1.13,0,0,0-1.27-.22,3.25,3.25,0,0,1-.43.18,1.13,1.13,0,0,0-.74,1.06v1.09H22.17V28.32a1.13,1.13,0,0,0-.74-1.06,3.12,3.12,0,0,1-.42-.18,1.15,1.15,0,0,0-1.28.22l-.77.77L17.85,27l.77-.77a1.13,1.13,0,0,0,.22-1.27,3.25,3.25,0,0,1-.18-.43,1.11,1.11,0,0,0-1.05-.74Z"/><path class="cls-1" d="M23,26.25A3.29,3.29,0,1,0,19.67,23,3.29,3.29,0,0,0,23,26.25Zm0-5.35A2.06,2.06,0,1,1,20.9,23,2.06,2.06,0,0,1,23,20.9Z"/><path class="cls-1" d="M9.65,17.4A7.75,7.75,0,1,0,1.9,9.65,7.76,7.76,0,0,0,9.65,17.4Zm4.13-2.71a6.5,6.5,0,0,1-8.26,0,2.13,2.13,0,0,1,2.13-2.17h4a2.13,2.13,0,0,1,2.13,2.17ZM9.65,3.13a6.52,6.52,0,0,1,5.19,10.46,3.37,3.37,0,0,0-3.19-2.3h-4a3.35,3.35,0,0,0-3.19,2.3A6.52,6.52,0,0,1,9.65,3.13Z"/><path class="cls-1" d="M36.27,28.52A7.75,7.75,0,1,0,44,36.27,7.76,7.76,0,0,0,36.27,28.52ZM40.4,41.31a6.5,6.5,0,0,1-8.26,0,2.13,2.13,0,0,1,2.13-2.16h4A2.12,2.12,0,0,1,40.4,41.31Zm1.06-1.1a3.36,3.36,0,0,0-3.18-2.3h-4a3.38,3.38,0,0,0-3.19,2.3,6.52,6.52,0,1,1,10.38,0Z"/><path class="cls-1" d="M11.78,9.38a3,3,0,0,0,0-4.26h0a3,3,0,1,0,0,4.26ZM8.39,6a1.77,1.77,0,0,1,2.52,0h0a1.77,1.77,0,0,1,0,2.52,1.79,1.79,0,0,1-2.52,0A1.77,1.77,0,0,1,8.39,6Z"/><path class="cls-1" d="M7.52,36a3,3,0,1,0,4.26-4.27h0A3,3,0,0,0,7.52,36Zm.87-3.4a1.78,1.78,0,0,1,2.52,2.52,1.78,1.78,0,1,1-2.52-2.52Z"/><path class="cls-1" d="M34.14,5.12a3,3,0,1,0,4.27,0h0a3,3,0,0,0-4.27,0Zm3.39,3.39A1.78,1.78,0,1,1,35,6a1.77,1.77,0,0,1,2.52,0h0A1.77,1.77,0,0,1,37.53,8.51Z"/><path class="cls-1" d="M38.41,31.74a3,3,0,1,0,0,4.27,3,3,0,0,0,0-4.27Zm-.88,3.39a1.77,1.77,0,0,1-2.52,0,1.78,1.78,0,0,1,2.52-2.52A1.77,1.77,0,0,1,37.53,35.13Z"/><path class="cls-1" d="M26.84,10.27a.62.62,0,0,0,0-1.24H19.08a.62.62,0,0,0,0,1.24Z"/><path class="cls-1" d="M19.08,35.66a.61.61,0,0,0-.62.61.62.62,0,0,0,.62.62h7.76a.62.62,0,0,0,.62-.62.61.61,0,0,0-.62-.61Z"/><path class="cls-1" d="M10.27,26.84V19.08a.62.62,0,1,0-1.24,0v7.76a.62.62,0,0,0,1.24,0Z"/><path class="cls-1" d="M36.89,26.84V19.08a.62.62,0,0,0-.62-.62.61.61,0,0,0-.61.62v7.76a.61.61,0,0,0,.61.62A.62.62,0,0,0,36.89,26.84Z"/><path class="cls-1" d="M42.67,8.39a.62.62,0,1,0,1.21-.24,7.76,7.76,0,1,0,0,3.13.61.61,0,1,0-1.2-.26,6.48,6.48,0,0,1-1.19,2.56,3.35,3.35,0,0,0-3.18-2.29h-4a3.37,3.37,0,0,0-3.19,2.3,6.52,6.52,0,1,1,11.59-5.2Zm-8.4,4.13h4a2.13,2.13,0,0,1,2.12,2.13v0a6.49,6.49,0,0,1-8.26,0A2.13,2.13,0,0,1,34.27,12.52Z"/><path class="cls-1" d="M9.65,44a7.75,7.75,0,0,0,1.56-15.34.62.62,0,0,0-.73.48.63.63,0,0,0,.48.73,6.51,6.51,0,0,1,3.88,10.32,3.38,3.38,0,0,0-3.19-2.3h-4a3.36,3.36,0,0,0-3.19,2.3A6.51,6.51,0,0,1,8.33,29.89a.62.62,0,0,0,.48-.73.6.6,0,0,0-.72-.48A7.75,7.75,0,0,0,9.65,44Zm-2-4.87h4a2.13,2.13,0,0,1,2.13,2.16,6.51,6.51,0,0,1-8.26,0A2.13,2.13,0,0,1,7.65,39.15Z"/></svg>