<svg id="Capa_1" data-name="Capa 1" xmlns="http://www.w3.org/2000/svg" viewBox="0 0 45.92 45.92"><defs><style>.cls-1{fill:#5a35b6;}</style></defs><title>Iconos servicios</title><path class="cls-1" d="M10,26.33a5.54,5.54,0,0,0-2.44-.56,5.62,5.62,0,1,0,4.67,8.74l5.31,2.65a5.7,5.7,0,0,0-.15,1.25,5.62,5.62,0,1,0,10.27-3.15l7.46-7.79a5.62,5.62,0,1,0-.1-8.94L27.39,11a5.61,5.61,0,1,0-10-3.44,5.7,5.7,0,0,0,.15,1.25l-5,1.81a5.62,5.62,0,1,0-2.75,7.71l2.58,4.35ZM7.51,35.6a4.22,4.22,0,1,1,4.22-4.21A4.22,4.22,0,0,1,7.51,35.6Zm5.3-2.35a5.77,5.77,0,0,0,.32-1.86,5.61,5.61,0,0,0-2-4.3l2-3.12,6.08,10.25A5.66,5.66,0,0,0,18,35.83ZM23,13.13A5.57,5.57,0,0,0,26.4,12L34,19.52a5.44,5.44,0,0,0-1,2l-4.41-.61s0,0,0-.06a5.62,5.62,0,0,0-10.29-3.12l-.83-.41,3.07-4.75a5.67,5.67,0,0,0,2.43.56Zm.7,19.71V26.42a5.61,5.61,0,0,0,4.72-4.12l4.41.61V23a5.58,5.58,0,0,0,1.26,3.54l-7.37,7.71A5.6,5.6,0,0,0,23.66,32.84ZM23,16.64a4.22,4.22,0,1,1-4.21,4.21A4.22,4.22,0,0,1,23,16.64ZM17.67,19a5.52,5.52,0,0,0-.33,1.86,5.62,5.62,0,0,0,4.92,5.57v6.42a5.37,5.37,0,0,0-1.87.58L14,22.66l2.69-4.16ZM23,42.62a4.22,4.22,0,1,1,4.21-4.21A4.22,4.22,0,0,1,23,42.62ZM38.41,18.75A4.21,4.21,0,1,1,34.19,23,4.22,4.22,0,0,1,38.41,18.75ZM23,3.3a4.22,4.22,0,1,1-4.21,4.21A4.22,4.22,0,0,1,23,3.3Zm-5,6.77a5.57,5.57,0,0,0,1.38,1.74l-3.16,4.87L12.81,15a5.72,5.72,0,0,0,.32-1.86A5.61,5.61,0,0,0,13,11.89ZM3.3,13.13a4.22,4.22,0,1,1,4.21,4.21A4.22,4.22,0,0,1,3.3,13.13ZM11,17.55a5.39,5.39,0,0,0,1.22-1.3l3.24,1.62L13.2,21.31Z"/></svg>