<svg id="Capa_1" data-name="Capa 1" xmlns="http://www.w3.org/2000/svg" viewBox="0 0 45.92 45.92"><defs><style>.cls-1{fill:#5a35b6;}</style></defs><title>Iconos servicios</title><path class="cls-1" d="M42.66,1.9H3.46A2.34,2.34,0,0,0,1.12,4.24V41.68A2.34,2.34,0,0,0,3.46,44h39.2A2.34,2.34,0,0,0,45,41.68V4.24A2.34,2.34,0,0,0,42.66,1.9ZM3.46,3.46h39.2a.78.78,0,0,1,.78.78v7H2.68v-7A.78.78,0,0,1,3.46,3.46Zm9.36,9.36H43.44v9.36H12.82Zm-1.56,9.36H2.68V12.82h8.58ZM2.68,41.68V23.74h8.58V42.46H3.46A.78.78,0,0,1,2.68,41.68Zm40,.78H12.82V23.74H43.44V41.68A.78.78,0,0,1,42.66,42.46Z"/><path class="cls-1" d="M6.58,9.7A2.34,2.34,0,1,0,4.24,7.36,2.34,2.34,0,0,0,6.58,9.7Zm0-3.12a.78.78,0,1,1-.78.78A.78.78,0,0,1,6.58,6.58Z"/><path class="cls-1" d="M12.82,9.7a2.34,2.34,0,1,0-2.34-2.34A2.34,2.34,0,0,0,12.82,9.7Zm0-3.12a.78.78,0,1,1-.78.78A.78.78,0,0,1,12.82,6.58Z"/><path class="cls-1" d="M19.06,9.7a2.34,2.34,0,1,0-2.34-2.34A2.34,2.34,0,0,0,19.06,9.7Zm0-3.12a.78.78,0,1,1-.78.78A.78.78,0,0,1,19.06,6.58Z"/><path class="cls-1" d="M9.7,20.62V14.38H4.24v6.24ZM5.8,15.94H8.14v3.12H5.8Z"/><path class="cls-1" d="M39.34,14.38a3.12,3.12,0,1,0,3.12,3.12A3.12,3.12,0,0,0,39.34,14.38Zm0,4.68A1.56,1.56,0,1,1,40.9,17.5,1.56,1.56,0,0,1,39.34,19.06Z"/><path class="cls-1" d="M30,14.38A3.12,3.12,0,1,0,33.1,17.5,3.12,3.12,0,0,0,30,14.38Zm0,4.68a1.56,1.56,0,1,1,1.56-1.56A1.56,1.56,0,0,1,30,19.06Z"/><path class="cls-1" d="M20.62,14.38a3.12,3.12,0,1,0,3.12,3.12A3.12,3.12,0,0,0,20.62,14.38Zm0,4.68a1.56,1.56,0,1,1,1.56-1.56A1.56,1.56,0,0,1,20.62,19.06Z"/><path class="cls-1" d="M4.24,26.86v4.68H9.7V26.86ZM8.14,30H5.8V28.42H8.14Z"/><path class="cls-1" d="M4.24,39.34H9.7V34.66H4.24ZM5.8,36.22H8.14v1.56H5.8Z"/><path class="cls-1" d="M26.86,39.34H25.3v-14H20.62v14H19.06V28.42H14.38V40.9H31.54V33.1H26.86Zm-9.36,0H15.94V30H17.5Zm4.68-12.48h1.56V39.34H22.18Zm6.24,7.8H30v4.68H28.42Z"/><path class="cls-1" d="M33.1,31.54h8.78V25.3H33.1Zm1.56-4.68h5.66V30H34.66Z"/><path class="cls-1" d="M33.1,33.1h1.56v1.56H33.1Z"/><path class="cls-1" d="M36.22,33.1h5.66v1.56H36.22Z"/><path class="cls-1" d="M33.1,36.22h1.56v1.56H33.1Z"/><path class="cls-1" d="M36.22,36.22h5.66v1.56H36.22Z"/><path class="cls-1" d="M33.1,39.34h1.56V40.9H33.1Z"/><path class="cls-1" d="M36.22,39.34h5.66V40.9H36.22Z"/></svg>