<svg id="Capa_1" data-name="Capa 1" xmlns="http://www.w3.org/2000/svg" viewBox="0 0 45.92 45.92"><defs><style>.cls-1{fill:#5a35b6;}</style></defs><title>Iconos servicios</title><path class="cls-1" d="M43.42,28l-1.76-.41a10.47,10.47,0,0,0-.36-1.33L42.61,25a.69.69,0,0,0,.16-.8,13.59,13.59,0,0,0-1.4-2.42.69.69,0,0,0-.77-.26l-1.7.52a11.33,11.33,0,0,0-1-1l.52-1.7a.72.72,0,0,0-.27-.78A13.83,13.83,0,0,0,37,17.83V5.41A3.51,3.51,0,0,0,33.49,1.9H5.41A3.51,3.51,0,0,0,1.9,5.41V23.66a3.51,3.51,0,0,0,3.51,3.51h7.42l-2.3,6.32H6.81a.7.7,0,0,0-.7.7,3.52,3.52,0,0,0,3.51,3.52h8.67c.1.15.19.31.3.46a.71.71,0,0,0,.78.27l1.7-.52a11.33,11.33,0,0,0,1,1l-.52,1.7a.7.7,0,0,0,.26.77,13.59,13.59,0,0,0,2.42,1.4.69.69,0,0,0,.8-.16l1.22-1.31a10.47,10.47,0,0,0,1.33.36L28,43.41a.7.7,0,0,0,.62.54A13.2,13.2,0,0,0,30,44a13.53,13.53,0,0,0,1.4-.07.68.68,0,0,0,.61-.53l.41-1.76a10,10,0,0,0,1.33-.36L35,42.61a.69.69,0,0,0,.8.16,13.87,13.87,0,0,0,2.41-1.4.7.7,0,0,0,.27-.77l-.52-1.7c.34-.31.67-.64,1-1l1.7.52a.7.7,0,0,0,.77-.27,13.87,13.87,0,0,0,1.4-2.41.69.69,0,0,0-.16-.8L41.3,33.73a10.47,10.47,0,0,0,.36-1.33L43.42,32a.7.7,0,0,0,.54-.61c0-.48.06-.95.06-1.4A13.2,13.2,0,0,0,44,28.59a.7.7,0,0,0-.53-.62ZM5.41,3.3H33.49A2.12,2.12,0,0,1,35.6,5.41V17.15a.67.67,0,0,0-.64.2l-1.23,1.31c-.43-.14-.88-.26-1.33-.36L32,16.55a.7.7,0,0,0-.61-.54,14.45,14.45,0,0,0-2.79,0,.71.71,0,0,0-.62.54l-.41,1.75c-.45.1-.89.22-1.33.36L25,17.35a.72.72,0,0,0-.81-.16,13.87,13.87,0,0,0-2.41,1.4.71.71,0,0,0-.26.78l.24.78H7.51V11.73h7V10.32h-7V6.11H31.39v8.42h1.4V5.41a.7.7,0,0,0-.7-.71H6.81a.7.7,0,0,0-.7.71V20.15H3.3V5.41A2.12,2.12,0,0,1,5.41,3.3ZM21.56,21.56a5.66,5.66,0,0,0-.49.49l-1.61-.49ZM3.3,23.66v-2.1H18.89a.66.66,0,0,0-.3.23,13.59,13.59,0,0,0-1.4,2.42.71.71,0,0,0,.16.8l.82.76H5.41A2.12,2.12,0,0,1,3.3,23.66Zm11,3.51H18.4c0,.13-.07.26-.1.39L16.55,28a.71.71,0,0,0-.54.62A13.2,13.2,0,0,0,15.94,30a13.53,13.53,0,0,0,.07,1.4.7.7,0,0,0,.54.61l1.76.41a10.29,10.29,0,0,0,.29,1.09H12ZM9.62,36.3a2.12,2.12,0,0,1-2-1.4h9.79l-.07.06a.7.7,0,0,0-.16.8c.08.18.19.36.28.54Zm33-5.56-1.71.4a.71.71,0,0,0-.53.57,10.23,10.23,0,0,1-.53,2,.7.7,0,0,0,.18.76l1.27,1.19a13.12,13.12,0,0,1-.76,1.31l-1.65-.5a.71.71,0,0,0-.75.23,10.46,10.46,0,0,1-1.45,1.45.71.71,0,0,0-.23.75l.5,1.65a13.12,13.12,0,0,1-1.31.76L34.44,40a.7.7,0,0,0-.76-.18,10.23,10.23,0,0,1-2,.53.71.71,0,0,0-.57.53l-.4,1.71a12.85,12.85,0,0,1-1.52,0l-.39-1.71a.72.72,0,0,0-.57-.53,10.33,10.33,0,0,1-2-.53.7.7,0,0,0-.76.18l-1.19,1.27A13.12,13.12,0,0,1,23,40.52l.5-1.65a.69.69,0,0,0-.22-.75,9.94,9.94,0,0,1-1.45-1.45.71.71,0,0,0-.75-.23l-1.65.5a11.43,11.43,0,0,1-.76-1.31L20,34.44a.71.71,0,0,0,.17-.76,10.4,10.4,0,0,1-.52-2,.71.71,0,0,0-.54-.57l-1.7-.4c0-.26,0-.51,0-.76s0-.5,0-.76l1.7-.4a.68.68,0,0,0,.53-.57,11.24,11.24,0,0,1,.53-2,.72.72,0,0,0-.17-.76l-1.27-1.19A11.43,11.43,0,0,1,19.45,23l1.65.5a.71.71,0,0,0,.74-.22,11.19,11.19,0,0,1,1.46-1.46.69.69,0,0,0,.22-.74L23,19.45a13.21,13.21,0,0,1,1.31-.77L25.52,20a.7.7,0,0,0,.76.18,10.43,10.43,0,0,1,2-.53.68.68,0,0,0,.57-.53l.4-1.7a9.64,9.64,0,0,1,1.52,0l.4,1.7a.68.68,0,0,0,.57.53,10.23,10.23,0,0,1,2,.53.7.7,0,0,0,.76-.18l1.19-1.27a13.21,13.21,0,0,1,1.31.77l-.5,1.65a.7.7,0,0,0,.23.74,11.68,11.68,0,0,1,1.45,1.45.7.7,0,0,0,.74.23l1.66-.5a13.12,13.12,0,0,1,.76,1.31L40,25.52a.7.7,0,0,0-.18.76,10.43,10.43,0,0,1,.53,2,.68.68,0,0,0,.53.57l1.71.4c0,.26,0,.51,0,.76s0,.5,0,.76Z"/><path class="cls-1" d="M34.9,30A4.92,4.92,0,1,0,30,34.9,4.92,4.92,0,0,0,34.9,30ZM30,33.49A3.51,3.51,0,1,1,33.49,30,3.51,3.51,0,0,1,30,33.49Z"/><path class="cls-1" d="M24.29,25.87l-1.14-.82a8.79,8.79,0,0,0-.77,1.29l1.27.61A7.31,7.31,0,0,1,24.29,25.87Z"/><path class="cls-1" d="M29.65,23l-.07-1.4a8.45,8.45,0,0,0-1.5.2l.32,1.37A7.52,7.52,0,0,1,29.65,23Z"/><path class="cls-1" d="M35.21,23.38l-.87,1.1a6.75,6.75,0,0,1,.91.86l1.06-.92a8.31,8.31,0,0,0-1.1-1Z"/><path class="cls-1" d="M23.22,31.86l-1.36.38a8,8,0,0,0,.54,1.41L23.66,33a7.3,7.3,0,0,1-.44-1.18Z"/><path class="cls-1" d="M26.64,23.81,26,22.57a8.12,8.12,0,0,0-1.26.84l.88,1.09a7.31,7.31,0,0,1,1.05-.69Z"/><path class="cls-1" d="M36.89,31.24l1.38.25A8.48,8.48,0,0,0,38.41,30v0L37,30A6.63,6.63,0,0,1,36.89,31.24Z"/><path class="cls-1" d="M30.3,37l.07,1.4a8.22,8.22,0,0,0,1.49-.2l-.31-1.37A7.52,7.52,0,0,1,30.3,37Z"/><path class="cls-1" d="M35.67,34.11l1.13.82a8,8,0,0,0,.78-1.29L36.31,33a7.86,7.86,0,0,1-.64,1.08Z"/><path class="cls-1" d="M36.74,28.09l1.36-.38a8.91,8.91,0,0,0-.54-1.41l-1.26.61A7.3,7.3,0,0,1,36.74,28.09Z"/><path class="cls-1" d="M33.31,36.16,34,37.4a8.84,8.84,0,0,0,1.26-.83l-.88-1.1a6.55,6.55,0,0,1-1,.69Z"/><path class="cls-1" d="M26.68,37.74a8.94,8.94,0,0,0,1.44.46l.31-1.37a6.47,6.47,0,0,1-1.2-.39Z"/><path class="cls-1" d="M24.7,34.61l-1.05.92a8.34,8.34,0,0,0,1.09,1l.87-1.1a6.79,6.79,0,0,1-.91-.87Z"/><path class="cls-1" d="M33.27,22.22a8.94,8.94,0,0,0-1.44-.46l-.31,1.37a7,7,0,0,1,1.2.38Z"/><path class="cls-1" d="M23.07,28.74l-1.38-.24A8.07,8.07,0,0,0,21.56,30v0L23,30A7.42,7.42,0,0,1,23.07,28.74Z"/><path class="cls-1" d="M27,8.42l-1,1L27.58,11H18.75a3.51,3.51,0,0,0-3.51,3.51v4.22h1.4V14.53a2.11,2.11,0,0,1,2.11-2.1h8.83L26,14l1,1,2.81-2.81a.71.71,0,0,0,0-1Z"/><path class="cls-1" d="M8.92,7.51h1.4V8.92H8.92Z"/><path class="cls-1" d="M11.73,7.51h1.4V8.92h-1.4Z"/><path class="cls-1" d="M14.53,7.51h1.41V8.92H14.53Z"/></svg>