<svg id="Capa_1" data-name="Capa 1" xmlns="http://www.w3.org/2000/svg" viewBox="0 0 45.92 45.92"><defs><style>.cls-1{fill:#5a35b6;}</style></defs><title>Iconos servicios</title><path class="cls-1" d="M39.65,19.49,38,19.16A1.34,1.34,0,0,1,37,18.1l-.3-1.51a4.71,4.71,0,0,0,1.47-1.78h.47a2.72,2.72,0,0,0,2.72-2.72,2.68,2.68,0,0,0-.56-1.63L41,9.72a6,6,0,0,0,.31-1.88A6,6,0,0,0,35.37,1.9H33.56A5.21,5.21,0,0,0,29.35,4l-.5.12a3.44,3.44,0,0,0-1.05.47H3.26V22.28h6.6l-1,4.08H1.9v1.36H44v-2.9a5.45,5.45,0,0,0-4.37-5.33ZM19.71,22.28l1,4.08H13.64l1-4.08Zm1.4,0h3.17a5.38,5.38,0,0,0-.64,2.54v1.54H22.13ZM25,24.82a4.09,4.09,0,0,1,3.28-4l.57-.11,2.57,5.65H25Zm6.31-5.08,1.27.64-1.75,1.4-.62-1.37a2.6,2.6,0,0,0,1.1-.67ZM34,22.28h-.38l-.27-.8.46-.37.46.37ZM32.45,23l-.28,1.71-.76-1.68.83-.67Zm1.28.62h.21l.45,2.72H33.28ZM35.21,23l.21-.64.84.67-.77,1.68Zm2.25-2.61-.62,1.37-1.75-1.4,1.26-.64a2.57,2.57,0,0,0,1.11.67Zm-1.84-2.05a1.17,1.17,0,0,0,.05.2l-1.84.92L32,18.56l.06-.2.22-1.1a4.73,4.73,0,0,0,1.56.26,4.79,4.79,0,0,0,1.57-.26Zm1.61-5.59a3.4,3.4,0,0,1-6.8,0V10.13a2,2,0,0,1,1.54-2,2,2,0,0,0,1.86,1.21h2.72a.69.69,0,0,1,.68.68Zm1.36.68h-.06a3.82,3.82,0,0,0,.06-.68v-2a1.36,1.36,0,0,1,0,2.72Zm-9.41-8,1-.25L30.32,5a3.89,3.89,0,0,1,3.24-1.73h1.81A4.59,4.59,0,0,1,40,7.84a4.5,4.5,0,0,1-.24,1.45l-.09.29a2.75,2.75,0,0,0-1-.21h-.13A2,2,0,0,0,36.55,8H33.83a.68.68,0,0,1,0-1.36h.68V5.29h-.68a2.05,2.05,0,0,0-2,1.49l-.22.06a3.4,3.4,0,0,0-2.48,2.53h-.09a2.58,2.58,0,0,0-1,.19,9,9,0,0,1-.39-2.23,1.92,1.92,0,0,1,1.46-1.87Zm-.1,5.27v2a5.06,5.06,0,0,0,.05.68h-.05a1.36,1.36,0,0,1,0-2.72ZM4.61,6H26.66a3.29,3.29,0,0,0-.3,1.36A11.3,11.3,0,0,0,27,10.42a2.65,2.65,0,0,0-.59,1.67,2.72,2.72,0,0,0,2.72,2.72h.46A4.74,4.74,0,0,0,31,16.59l-.31,1.51a1.32,1.32,0,0,1-1.06,1.06L28,19.49a5.4,5.4,0,0,0-2.71,1.43H4.61Zm6.65,16.31h2l-1,4.08h-2Zm31.41,4.08H36.25l2.56-5.65.58.11a4.1,4.1,0,0,1,3.28,4Z"/><path class="cls-1" d="M25,8.69H16.85v2.72H14.13V7.33H6v8.16h4.08v4.07h9.51V15.49H25Zm-17.67,0h5.44v5.44H7.33ZM18.2,18.2H11.41V15.49h2.72V12.77H18.2Zm5.44-4.07H19.56V11.41H18.2V10.05h5.44Z"/><path class="cls-1" d="M39.6,37.47a4.77,4.77,0,0,0,1.71-3.64v-.68a4.08,4.08,0,0,0-4.08-4.07H35.87a4.08,4.08,0,0,0-4.08,4.07v.68a4.77,4.77,0,0,0,1.71,3.64,6.09,6.09,0,0,0-3.75,3.08A6.12,6.12,0,0,0,26,37.47a4.74,4.74,0,0,0,1.71-3.64v-.68a4.08,4.08,0,0,0-4.08-4.07H22.28a4.08,4.08,0,0,0-4.08,4.07v.68a4.74,4.74,0,0,0,1.71,3.64,6.12,6.12,0,0,0-3.74,3.08,6.12,6.12,0,0,0-3.74-3.08,4.74,4.74,0,0,0,1.7-3.64V32.47a3.4,3.4,0,0,0-3.4-3.39H6a1.36,1.36,0,0,0-1.36,1.35v3.4a4.74,4.74,0,0,0,1.71,3.64A6.13,6.13,0,0,0,1.9,43.34V44H44v-.68A6.1,6.1,0,0,0,39.6,37.47Zm-1.69,1.12a1.36,1.36,0,0,1-2.72,0,1.38,1.38,0,0,1,0-.2,4.52,4.52,0,0,0,2.66,0A1.38,1.38,0,0,1,37.91,38.59Zm-4.76-4.76v-.68a2.72,2.72,0,0,1,2.72-2.72h1.36A2.72,2.72,0,0,1,40,33.15v.68a3.4,3.4,0,0,1-6.8,0Zm-13.59,0v-.68a2.72,2.72,0,0,1,2.72-2.72h1.36a2.72,2.72,0,0,1,2.72,2.72v.68a3.4,3.4,0,1,1-6.8,0Zm2,4.76h2.72A4.75,4.75,0,0,1,29,42.67H16.9a4.75,4.75,0,0,1,4.7-4.08ZM6,33.83v-3.4h4.76a2,2,0,0,1,2,2v1.36a3.4,3.4,0,0,1-6.8,0ZM3.3,42.67A4.76,4.76,0,0,1,8,38.59h2.72a4.76,4.76,0,0,1,4.71,4.08Zm27.19,0a4.74,4.74,0,0,1,3.36-3.89,2.71,2.71,0,0,0,5.4,0,4.77,4.77,0,0,1,3.37,3.89Z"/></svg>