<svg xmlns="http://www.w3.org/2000/svg" viewBox="0 0 404.59 122.84"><defs><style>.cls-1{fill:#5a35b6;}.cls-2{fill:#01d1d1;}.cls-3{fill:#0a102a;}</style></defs><title>Asset 2</title><g id="Layer_2" data-name="Layer 2"><g id="Capa_1" data-name="Capa 1"><path class="cls-1" d="M11.26,106.25h0A11.26,11.26,0,0,1,0,95V15.45A15.43,15.43,0,0,1,22.52,1.74h0V95A11.26,11.26,0,0,1,11.26,106.25Z"/><path class="cls-2" d="M99,88.47h0A11.26,11.26,0,0,1,87.7,77.21V13.6h0a15.43,15.43,0,0,1,22.52,13.7V77.21A11.26,11.26,0,0,1,99,88.47Z"/><path class="cls-1" d="M40.89,122.84h0a11.26,11.26,0,0,0,11.26-11.26V85.37a15.43,15.43,0,0,0-22.52-13.7h0v39.91A11.26,11.26,0,0,0,40.89,122.84Z"/><path class="cls-2" d="M69.33,95.58h0A11.26,11.26,0,0,0,80.59,84.32V55.07h0A15.44,15.44,0,0,0,58.07,68.78V84.32A11.26,11.26,0,0,0,69.33,95.58Z"/><path class="cls-3" d="M158.87,72.78V95.07h-5.25V74.24c0-4-1.16-5.25-4.21-5.25-3.55,0-6.72,1.65-11.48,4.64V95.07h-5.2V52.32h5.2L138,64.11a40.36,40.36,0,0,1-.37,5.8c4.46-3.24,8.79-5.32,13.19-5.32C156.06,64.59,158.87,67.4,158.87,72.78Z"/><path class="cls-3" d="M192.45,74.12V95.07h-4.09l-.61-4.95c-2.32,2.38-6.78,5.5-12.28,5.5-5.31,0-8.91-2.93-8.91-8.31V84.08c0-4.65,3.05-7.33,8.24-7.33h12.4V74.12c0-3.66-1.35-5.13-6-5.13-3.11,0-8.24.37-12.76.79l-.49-3.84a98.93,98.93,0,0,1,14.35-1.35C188.85,64.59,192.45,66.92,192.45,74.12ZM187.2,86.7v-6l-11.48.07c-2.87.12-3.85,1.58-3.85,4.09V86.7c0,3.12,1.41,4.46,4.64,4.46C179.44,91.22,183.72,89.75,187.2,86.7Z"/><path class="cls-3" d="M209.18,86.88c0,2.87,1.1,4,4,4h4.52l.61,4a31.32,31.32,0,0,1-6.72.8c-5,0-7.63-2.87-7.63-8.06V69.42h-5.38V65.63l5.38-.3v-8.8h5.19v8.8h9.46v4.09h-9.46Z"/><path class="cls-3" d="M250.27,95.07h-4.15l-.37-4.34c-4.46,3.36-8.55,5.13-12.82,5.13-5.38,0-8.12-2.81-8.12-8.18V65.33H230V86.21c-.06,3.79,1.28,5.13,4.7,5.13,3.17,0,6.05-1.46,10.38-4.27V65.33h5.19Z"/><path class="cls-3" d="M285.93,72.78V95.07h-5.19V74.24c0-4-1.22-5.25-4.28-5.25-3.54,0-6.72,1.77-11.48,4.64V95.07h-5.19V65.33h4.4l.36,4.7c4.52-3.48,8.92-5.44,13.32-5.44C283.12,64.59,285.93,67.4,285.93,72.78Z"/><path class="cls-3" d="M317.46,95.07h-1.1l-.24-5.13C311.78,93.79,308,95.8,304,95.8c-7.7,0-10.63-4.27-10.63-15.39S296.27,65,304,65c4,0,7.87,1.16,12.21,3.06A45,45,0,0,1,316,62.4V52.32h1.46ZM304,94.39c3.84,0,7.14-1.77,12-5.86V69.36c-4.89-2-8.19-2.93-12-2.93-6.54,0-9.1,3.72-9.1,14S297.43,94.39,304,94.39Z"/><path class="cls-3" d="M350.55,73.2V95.07h-1.1l-.3-5.68c-2.51,2.56-8.61,6-14.23,6-4.83,0-7.63-2.62-7.63-7.39V84.26c0-4.4,2.56-6.9,7-6.9h14.78V73.2c0-3.72-1.53-6.77-6.72-6.77a114.5,114.5,0,0,0-13.74,1l-.18-1.1a86.67,86.67,0,0,1,14-1.28C347.44,65,350.55,67.34,350.55,73.2Zm-1.46,14.72V78.58l-14.78.24c-3.6.06-5.5,2-5.5,5.44V88c0,3.85,2.08,5.87,6.11,5.93C339.56,94.09,345.73,91.16,349.09,87.92Z"/><path class="cls-3" d="M365,89.2c0,3.24,1.77,4.89,4.88,4.89h5.38l.18,1a45.41,45.41,0,0,1-5.19.36c-4.52,0-6.72-2.2-6.72-6.16V67.1h-5.31v-1l5.31-.31V56.53H365v9.22h10.87V67.1H365Z"/><path class="cls-3" d="M404.59,73.2V95.07h-1.1l-.31-5.68c-2.5,2.56-8.61,6-14.23,6-4.82,0-7.63-2.62-7.63-7.39V84.26c0-4.4,2.56-6.9,7-6.9h14.78V73.2c0-3.72-1.53-6.77-6.72-6.77a114.64,114.64,0,0,0-13.74,1l-.18-1.1a86.9,86.9,0,0,1,14-1.28C401.47,65,404.59,67.34,404.59,73.2Zm-1.47,14.72V78.58l-14.78.24c-3.6.06-5.49,2-5.49,5.44V88c0,3.85,2.07,5.87,6.1,5.93C393.59,94.09,399.76,91.16,403.12,87.92Z"/></g></g></svg>