<svg id="Capa_2" data-name="Capa 2" xmlns="http://www.w3.org/2000/svg" viewBox="0 0 121 62"><defs><style>.cls-1{fill:#5a35b6;}.cls-2{fill:#01d1d1;}.cls-3{fill:#0a102a;}</style></defs><title>Logo Hatun</title><path class="cls-1" d="M3.06,43.19h0A3.06,3.06,0,0,1,0,40.13V18.5a4.19,4.19,0,0,1,6.12-3.73h0V40.13A3.06,3.06,0,0,1,3.06,43.19Z"/><path class="cls-2" d="M26.91,38.36h0a3.06,3.06,0,0,1-3.06-3.06V18h0A4.2,4.2,0,0,1,30,21.72V35.3A3.06,3.06,0,0,1,26.91,38.36Z"/><path class="cls-1" d="M11,47.7h0a3.07,3.07,0,0,0,3.07-3.06V37.52A4.2,4.2,0,0,0,8,33.79H8V44.64A3.06,3.06,0,0,0,11,47.7Z"/><path class="cls-2" d="M19,40.29h0A3.06,3.06,0,0,0,22,37.23v-8h0A4.2,4.2,0,0,0,15.9,33v4.23A3.06,3.06,0,0,0,19,40.29Z"/><path class="cls-3" d="M44.26,30.59v7H42.62v-6.5c0-1.24-.36-1.64-1.31-1.64a6.87,6.87,0,0,0-3.59,1.45v6.69H36.1V24.2h1.62l0,3.68a13.29,13.29,0,0,1-.11,1.81A7.19,7.19,0,0,1,41.75,28,2.27,2.27,0,0,1,44.26,30.59Z"/><path class="cls-3" d="M54.75,31v6.54H53.47L53.28,36a5.56,5.56,0,0,1-3.83,1.71,2.49,2.49,0,0,1-2.79-2.59v-1c0-1.45,1-2.29,2.58-2.29h3.87V31c0-1.14-.42-1.6-1.89-1.6-1,0-2.57.11-4,.25l-.16-1.21A30.81,30.81,0,0,1,51.57,28C53.63,28,54.75,28.76,54.75,31Zm-1.64,3.93V33.05l-3.59,0c-.89,0-1.2.49-1.2,1.28v.59c0,1,.44,1.39,1.45,1.39A5.35,5.35,0,0,0,53.11,34.94Z"/><path class="cls-3" d="M60,35c0,.89.35,1.23,1.26,1.23h1.41l.19,1.24a9.24,9.24,0,0,1-2.09.25,2.2,2.2,0,0,1-2.39-2.51V29.54H56.67V28.36l1.68-.1V25.52H60v2.74h3v1.28H60Z"/><path class="cls-3" d="M72.81,37.55h-1.3L71.4,36.2a6.66,6.66,0,0,1-4,1.6,2.26,2.26,0,0,1-2.53-2.56v-7h1.62v6.53c0,1.18.4,1.6,1.46,1.6a6.1,6.1,0,0,0,3.25-1.34V28.26h1.62Z"/><path class="cls-3" d="M83.94,30.59v7H82.32v-6.5c0-1.24-.38-1.64-1.33-1.64-1.11,0-2.1.55-3.59,1.45v6.69H75.78V28.26h1.37l.12,1.47A6.9,6.9,0,0,1,81.43,28,2.27,2.27,0,0,1,83.94,30.59Z"/><path class="cls-3" d="M93.79,37.55h-.34L93.37,36a5.8,5.8,0,0,1-3.79,1.83c-2.41,0-3.32-1.34-3.32-4.81s.91-4.8,3.32-4.8a9.42,9.42,0,0,1,3.81.95,13.09,13.09,0,0,1-.06-1.77V24.2h.46Zm-4.21-.21c1.2,0,2.23-.55,3.75-1.83v-6a9.62,9.62,0,0,0-3.75-.91c-2,0-2.85,1.16-2.85,4.36S87.54,37.34,89.58,37.34Z"/><path class="cls-3" d="M104.13,30.72v6.83h-.35l-.09-1.77a7.14,7.14,0,0,1-4.45,1.89,2.13,2.13,0,0,1-2.38-2.31V34.18A2,2,0,0,1,99.05,32h4.62v-1.3a1.86,1.86,0,0,0-2.1-2.11,36.09,36.09,0,0,0-4.29.3l-.06-.34a27.33,27.33,0,0,1,4.37-.4A2.25,2.25,0,0,1,104.13,30.72Zm-.46,4.6V32.4l-4.62.08a1.54,1.54,0,0,0-1.71,1.7v1.18a1.68,1.68,0,0,0,1.9,1.85A7.1,7.1,0,0,0,103.67,35.32Z"/><path class="cls-3" d="M108.62,35.72a1.38,1.38,0,0,0,1.53,1.53h1.68l0,.3a13.15,13.15,0,0,1-1.62.12c-1.41,0-2.09-.69-2.09-1.93V28.82h-1.66v-.33l1.66-.09V25.52h.45V28.4H112v.42h-3.4Z"/><path class="cls-3" d="M121,30.72v6.83h-.34l-.1-1.77a7.11,7.11,0,0,1-4.44,1.89,2.13,2.13,0,0,1-2.39-2.31V34.18a2,2,0,0,1,2.2-2.16h4.61v-1.3a1.86,1.86,0,0,0-2.1-2.11,36.23,36.23,0,0,0-4.29.3l-.05-.34a27.3,27.3,0,0,1,4.36-.4A2.25,2.25,0,0,1,121,30.72Zm-.46,4.6V32.4l-4.61.08a1.54,1.54,0,0,0-1.72,1.7v1.18a1.69,1.69,0,0,0,1.91,1.85A7.07,7.07,0,0,0,120.54,35.32Z"/></svg>